<svg xmlns="http://www.w3.org/2000/svg" viewBox="0 0 64 64" role="img" aria-labelledby="title desc">
  <title id="title">Bluesky</title>
  <desc id="desc">A stylized blue butterfly</desc>
  <path d="M18.83 13.5c5.1 3.83 10.6 11.6 13.17 16.9 2.57-5.3 8.07-13.07 13.17-16.9 3.67-2.75 9.6-4.87 9.6 1.9 0 1.36-.78 11.44-1.23 13.08-1.56 5.68-7.23 7.13-12.27 6.27 8.82 1.5 11.07 6.46 6.22 11.42-9.2 9.41-13.22-2.36-14.25-5.37-.19-.55-.28-.81-.24-.6-.04-.21-.05.05-.24.6-1.03 3.01-5.05 14.78-14.25 5.37-4.85-4.96-2.6-9.92 6.22-11.42-5.04.86-10.71-.59-12.27-6.27-.45-1.64-1.23-11.72-1.23-13.08 0-6.77 5.93-4.65 9.6-1.9Z" fill="#1185fe"/>
</svg>
