<svg xmlns="http://www.w3.org/2000/svg" viewBox="0 0 64 64" role="img" aria-labelledby="title desc">
  <title id="title">TikTok</title>
  <desc id="desc">TikTok musical note logo</desc>
  <path d="M38.77 10c1.27 7.21 5.58 11.53 12.7 12v8.12c-4.12.4-7.78-.99-11.95-3.5v15.2c0 7.75-4.25 13.57-11.12 15.74-11.93 3.78-22.6-5.06-20.69-16.76 1.23-7.54 7.14-12.86 14.75-13.4 1.89-.13 3.09.08 4.95.52v8.72c-1.48-.47-2.81-.91-4.6-.76-5.34.44-8.92 4.57-8.33 9.69.77 6.72 8.93 10.17 14.36 5.97 1.85-1.43 2.91-3.58 2.91-6.56V10h7.02Z" fill="#111111"/>
  <path d="M32.7 10v35.5c0 2.98-1.06 5.13-2.91 6.56-3.13 2.42-7.27 2.11-10.33-.14 1.72 1.75 4.16 2.9 7.08 2.9 5.6 0 10.14-4.54 10.14-10.14V18.3c3.25 2.34 6.46 3.33 9.79 3.02v-2.4c-3.98-1.63-6.95-4.79-8.32-8.92H32.7Z" fill="#25f4ee" opacity=".9"/>
  <path d="M35.08 10c1.27 7.21 5.58 11.53 12.7 12v4.3c-3.33.31-6.54-.68-9.79-3.02v26.38c0 5.6-4.54 10.14-10.14 10.14-2.92 0-5.36-1.15-7.08-2.9-.36-.27-.71-.56-1.04-.88 5.43 4.2 13.59.75 14.36-5.97.16-1.39.02-2.64-.33-3.76V10h1.32Z" fill="#fe2c55" opacity=".9"/>
</svg>
